<svg width="135" height="22" viewBox="0 0 135 22" fill="none" xmlns="http://www.w3.org/2000/svg">
<path d="M0.0967346 21V2.52H9.08474C11.3621 2.53867 13.0421 2.97733 14.1247 3.836C15.2074 4.676 15.7487 5.89867 15.7487 7.504C15.7487 8.54933 15.4407 9.45467 14.8247 10.22C14.2087 10.9667 13.2661 11.4427 11.9967 11.648V11.676C13.4154 11.8627 14.4701 12.3573 15.1607 13.16C15.8701 13.944 16.2247 14.896 16.2247 16.016C16.2247 17.6027 15.6647 18.8347 14.5447 19.712C13.4247 20.5707 11.7447 21 9.50473 21H0.0967346ZM4.74473 17.612H8.69274C9.57007 17.612 10.2234 17.4347 10.6527 17.08C11.0821 16.7253 11.2967 16.212 11.2967 15.54C11.2967 14.8867 11.0821 14.392 10.6527 14.056C10.2234 13.7013 9.57007 13.524 8.69274 13.524H4.74473V17.612ZM4.74473 10.08H8.24474C9.96207 10.08 10.8207 9.408 10.8207 8.064C10.8207 6.72 9.96207 6.048 8.24474 6.048H4.74473V10.08ZM25.5654 6.72C27.04 6.72 28.328 7.00933 29.4294 7.588C30.5494 8.148 31.4174 8.97867 32.0334 10.08C32.668 11.1627 32.9854 12.4693 32.9854 14C32.9854 15.5307 32.668 16.8467 32.0334 17.948C31.4174 19.0307 30.5494 19.8613 29.4294 20.44C28.328 21 27.04 21.28 25.5654 21.28C24.128 21.28 22.8494 21 21.7294 20.44C20.6094 19.8613 19.732 19.0307 19.0974 17.948C18.4814 16.8467 18.1734 15.5307 18.1734 14C18.1734 12.4693 18.4814 11.1627 19.0974 10.08C19.732 8.97867 20.6094 8.148 21.7294 7.588C22.8494 7.00933 24.128 6.72 25.5654 6.72ZM25.5654 10.108C25.024 10.108 24.5574 10.2387 24.1654 10.5C23.7734 10.7613 23.4747 11.1813 23.2694 11.76C23.064 12.3387 22.9614 13.0853 22.9614 14C22.9614 14.9147 23.064 15.6613 23.2694 16.24C23.4747 16.8 23.7734 17.22 24.1654 17.5C24.5574 17.7613 25.024 17.892 25.5654 17.892C26.1254 17.892 26.6014 17.7613 26.9934 17.5C27.3854 17.22 27.684 16.8 27.8894 16.24C28.0947 15.6613 28.1974 14.9147 28.1974 14C28.1974 13.0853 28.0947 12.3387 27.8894 11.76C27.684 11.1813 27.3854 10.7613 26.9934 10.5C26.6014 10.2387 26.1254 10.108 25.5654 10.108ZM42.3271 6.72C43.8017 6.72 45.0897 7.00933 46.1911 7.588C47.3111 8.148 48.1791 8.97867 48.7951 10.08C49.4297 11.1627 49.7471 12.4693 49.7471 14C49.7471 15.5307 49.4297 16.8467 48.7951 17.948C48.1791 19.0307 47.3111 19.8613 46.1911 20.44C45.0897 21 43.8017 21.28 42.3271 21.28C40.8897 21.28 39.6111 21 38.4911 20.44C37.3711 19.8613 36.4937 19.0307 35.8591 17.948C35.2431 16.8467 34.9351 15.5307 34.9351 14C34.9351 12.4693 35.2431 11.1627 35.8591 10.08C36.4937 8.97867 37.3711 8.148 38.4911 7.588C39.6111 7.00933 40.8897 6.72 42.3271 6.72ZM42.3271 10.108C41.7857 10.108 41.3191 10.2387 40.9271 10.5C40.5351 10.7613 40.2364 11.1813 40.0311 11.76C39.8257 12.3387 39.7231 13.0853 39.7231 14C39.7231 14.9147 39.8257 15.6613 40.0311 16.24C40.2364 16.8 40.5351 17.22 40.9271 17.5C41.3191 17.7613 41.7857 17.892 42.3271 17.892C42.8871 17.892 43.3631 17.7613 43.7551 17.5C44.1471 17.22 44.4457 16.8 44.6511 16.24C44.8564 15.6613 44.9591 14.9147 44.9591 14C44.9591 13.0853 44.8564 12.3387 44.6511 11.76C44.4457 11.1813 44.1471 10.7613 43.7551 10.5C43.3631 10.2387 42.8871 10.108 42.3271 10.108ZM67.7968 7L61.0768 14.168L60.1808 14.42L56.1768 18.9L56.1488 14.028L62.5048 7H67.7968ZM57.1848 1.064V21H52.4248V1.064H57.1848ZM61.8048 11.2L68.1048 21H62.8408L58.6968 14L61.8048 11.2ZM93.872 2.52L87.32 21H81.664L75.084 2.52H80.152L83.54 13.692L84.548 17.332L85.528 13.748L88.972 2.52H93.872ZM98.1173 5.376C97.1466 5.376 96.4373 5.19867 95.9893 4.844C95.56 4.47067 95.3453 3.892 95.3453 3.108C95.3453 2.30533 95.56 1.72667 95.9893 1.372C96.4373 0.998666 97.1466 0.812 98.1173 0.812C99.0693 0.812 99.7693 0.998666 100.217 1.372C100.665 1.72667 100.889 2.30533 100.889 3.108C100.889 3.892 100.665 4.47067 100.217 4.844C99.7693 5.19867 99.0693 5.376 98.1173 5.376ZM100.497 7V21H95.7373V7H100.497ZM112.874 21.28C111.959 21.28 111.147 21.0747 110.438 20.664C109.747 20.2533 109.178 19.6933 108.73 18.984C108.282 18.256 107.992 17.4347 107.862 16.52L108.31 15.932L108.058 21H103.886V1.064H108.646V11.396L108.198 10.724C108.459 9.56667 108.991 8.61467 109.794 7.868C110.596 7.10267 111.679 6.72 113.042 6.72C114.124 6.72 115.086 7.00933 115.926 7.588C116.784 8.16667 117.447 9.00667 117.914 10.108C118.399 11.1907 118.642 12.5067 118.642 14.056C118.642 15.568 118.399 16.8653 117.914 17.948C117.428 19.0307 116.756 19.8613 115.898 20.44C115.039 21 114.031 21.28 112.874 21.28ZM111.222 17.78C112.043 17.78 112.687 17.4813 113.154 16.884C113.62 16.268 113.854 15.3067 113.854 14C113.854 12.6933 113.62 11.7413 113.154 11.144C112.687 10.528 112.043 10.22 111.222 10.22C110.68 10.22 110.214 10.3787 109.822 10.696C109.448 10.9947 109.159 11.424 108.954 11.984C108.748 12.544 108.646 13.2253 108.646 14.028C108.646 14.8307 108.748 15.512 108.954 16.072C109.159 16.632 109.458 17.0613 109.85 17.36C110.242 17.64 110.699 17.78 111.222 17.78ZM128.272 21.28C126.723 21.28 125.379 20.9907 124.24 20.412C123.12 19.8333 122.252 19.0027 121.636 17.92C121.02 16.8373 120.712 15.5307 120.712 14C120.712 12.4693 121.02 11.1627 121.636 10.08C122.252 8.99733 123.111 8.16667 124.212 7.588C125.332 7.00933 126.611 6.72 128.048 6.72C129.523 6.72 130.774 7.00933 131.8 7.588C132.846 8.148 133.639 8.932 134.18 9.94C134.722 10.9293 134.992 12.068 134.992 13.356C134.992 13.692 134.983 14.028 134.964 14.364C134.946 14.7 134.918 14.98 134.88 15.204H123.792V12.656H132.78L130.512 13.524C130.512 12.404 130.307 11.5453 129.896 10.948C129.504 10.3507 128.888 10.052 128.048 10.052C127.451 10.052 126.938 10.192 126.508 10.472C126.098 10.752 125.78 11.1907 125.556 11.788C125.351 12.3853 125.248 13.1507 125.248 14.084C125.248 14.9987 125.37 15.7453 125.612 16.324C125.855 16.884 126.2 17.2947 126.648 17.556C127.096 17.7987 127.638 17.92 128.272 17.92C128.982 17.92 129.542 17.78 129.952 17.5C130.382 17.22 130.699 16.828 130.904 16.324L134.712 17.584C134.451 18.3867 133.994 19.068 133.34 19.628C132.706 20.1693 131.94 20.58 131.044 20.86C130.167 21.14 129.243 21.28 128.272 21.28Z" fill="#131313"/>
</svg>
